<?xml version="1.0" encoding="UTF-8"?>
<!DOCTYPE svg PUBLIC "-//W3C//DTD SVG 1.1//EN" "http://www.w3.org/Graphics/SVG/1.1/DTD/svg11.dtd">
<!-- Creator: CorelDRAW 2020 (64-Bit) -->
<svg xmlns="http://www.w3.org/2000/svg" xml:space="preserve" width="115.821mm" height="49.5256mm" version="1.1" style="shape-rendering:geometricPrecision; text-rendering:geometricPrecision; image-rendering:optimizeQuality; fill-rule:evenodd; clip-rule:evenodd"
viewBox="0 0 8532.35 3648.48"
 xmlns:xlink="http://www.w3.org/1999/xlink"
 xmlns:xodm="http://www.corel.com/coreldraw/odm/2003">
 <defs>
  <style type="text/css">
   <![CDATA[
    .str0 {stroke:#373435;stroke-width:5.61;stroke-linecap:round;stroke-linejoin:round;stroke-miterlimit:22.9256}
    .fil0 {fill:#373435;fill-rule:nonzero}
   ]]>
  </style>
   <clipPath id="id0">
    <rect width="2603.9" height="3648.48"/>
   </clipPath>
 </defs>
 <g id="Layer_x0020_1">
  <metadata id="CorelCorpID_0Corel-Layer"/>
  <g style="clip-path:url(#id0)">
   <image x="-0" y="0.01" width="2603.9" height="3648.47" xlink:href="hcb logo_Images\hcb logo_ImgID1.png"/>
  </g>
  <path class="fil0 str0" d="M2754.89 294.24l66.31 0 0 294.28c12.44,-16.58 24.87,-31.09 36.27,-43.52 19.69,-21.76 42.48,-43.52 54.92,-43.52l337.8 0c16.58,0 74.6,70.46 74.6,87.05l0 431.05 -66.32 0 0 -397.9c0,-24.86 -32.12,-58.02 -49.74,-58.02l-271.48 0c-15.54,0 -116.06,107.76 -116.06,124.34l0 331.58 -66.31 0 0 -725.33zm1150.16 725.33l-317.07 0c-9.33,0 -102.58,-63.21 -102.58,-101.54l0 -37.31 0 -59.06c0,-44.55 -1.04,-96.37 -1.04,-138.85l0 -59.06 0 -36.27c0,-24.87 92.22,-86.01 126.42,-86.01l396.86 0c36.27,0 101.54,55.96 101.54,82.9l0 435.2 -59.06 0 0 -403.08c0,-18.65 -47.66,-51.81 -64.25,-51.81l-353.34 0c-16.58,7.26 -31.09,14.51 -43.52,21.76 -21.75,13.47 -43.52,29.02 -43.52,48.7l0 256.97c0,21.76 56.99,67.36 65.28,67.36l294.28 0 0 60.1zm470.43 0l-66.32 0 0 -406.19c21.76,-20.72 42.48,-39.38 61.14,-55.95 33.16,-27.98 66.32,-55.96 79.78,-55.96l232.11 0 0 62.18 -190.65 0c-16.58,0 -116.06,82.89 -116.06,99.47l0 356.45zm853.82 -454.89l-248.68 0c-24.87,0 -82.89,73.57 -82.89,81.86l0 240.4c0,24.87 41.45,66.32 49.73,66.32l364.74 0c16.58,0 58.02,-49.73 58.02,-58.03l0 -397.89 0 -205.17 66.32 0 0 627.93c0,15.54 -82.89,99.47 -107.76,99.47l-397.89 0c-24.87,0 -99.47,-82.89 -99.47,-91.19l0 -306.71c0,-16.58 99.47,-120.2 124.34,-120.2l273.55 0 0 63.21zm941.9 35.24c-5.18,-7.26 -10.37,-12.44 -15.54,-17.61 -8.29,-8.3 -18.65,-16.58 -27.98,-16.58l-370.95 0c-12.44,0 -38.34,27.98 -38.34,44.55l0 319.15c0,16.58 20.72,32.12 38.34,32.12l367.84 0c15.54,0 26.95,-8.29 35.24,-16.58 5.18,-5.18 9.33,-10.37 12.44,-15.54l44.55 51.81c-8.29,7.25 -16.58,13.47 -24.87,18.65 -15.54,9.32 -32.12,19.68 -47.66,19.68l-424.84 0c-32.12,0 -69.42,-46.62 -69.42,-65.28l0 -33.16 0 -66.32 0 -83.93 0 -82.9 0 -66.32 0 -31.08c-3.11,-31.09 33.15,-89.12 66.31,-89.12l428.99 0c13.47,0 29.01,13.47 44.55,29.02 8.29,8.29 16.58,17.61 24.86,29.01l-43.52 40.41zm711.86 -98.44c59.07,-3.1 107.77,71.5 107.77,111.91l0 298.42c0,59.06 -66.32,107.76 -124.35,107.76l-399.97 0c-53.88,0 -97.4,-44.55 -97.4,-99.47l0 -309.82c0,-70.46 42.48,-99.47 107.76,-108.8l406.18 0zm-377.17 59.07c-38.34,0 -67.36,19.68 -67.36,55.95l1.04 297.39c0,8.29 25.9,51.81 52.85,51.81l335.72 0c33.16,0 93.26,-21.76 93.26,-72.53l0 -240.4c0,-48.7 -23.83,-92.22 -76.68,-92.22l-338.83 0zm766.77 459.03l-66.32 0 0 -406.19c21.76,-20.72 42.48,-39.38 61.14,-55.95 33.16,-27.98 66.32,-55.96 79.78,-55.96l232.11 0 0 62.18 -190.65 0c-16.58,0 -116.06,82.89 -116.06,99.47l0 356.45zm614.46 -273.55l297.39 0c16.58,0 58.03,-49.73 58.03,-82.89 0,-23.83 -41.45,-99.47 -58.03,-99.47l-297.39 0c-24.87,0 -99.47,58.02 -99.47,74.6l0 265.27c0,24.86 24.87,58.02 41.45,58.02l363.7 0c8.3,0 23.83,-13.47 39.38,-29.01 8.29,-8.29 17.61,-17.61 26.94,-29.01l41.45 49.73c-13.47,12.44 -26.94,23.83 -39.37,33.16 -20.73,16.58 -43.52,33.16 -51.81,33.16l-421.73 0c-24.87,0 -58.02,-58.03 -58.02,-74.6l0 -331.58c0,-31.08 106.72,-111.91 140.92,-111.91l330.54 0c41.45,0 99.47,136.78 99.47,169.94 0,48.7 -74.6,132.63 -99.47,132.63l-313.97 0 0 -58.03zm-4913.59 805.4l273.55 0c24.86,0 124.34,103.62 124.34,120.2l0 306.71c0,8.3 -74.6,91.19 -99.47,91.19l-397.89 0c-24.87,0 -107.76,-83.93 -107.76,-99.47l0 -627.93 66.32 0 0 205.17 0 397.89c0,8.3 41.45,58.03 58.02,58.03l364.74 0c8.29,0 49.73,-41.45 49.73,-66.32l0 -240.4c0,-8.29 -58.02,-81.86 -82.89,-81.86l-248.68 0 0 -63.21zm704.6 0l0 518.1 -66.32 0 0 -518.1 66.32 0zm742.94 0c59.07,-3.1 107.77,71.5 107.77,111.91l0 298.42c0,59.06 -66.32,107.76 -124.35,107.76l-399.97 0c-53.88,0 -97.4,-44.55 -97.4,-99.47l0 -309.82c0,-70.46 42.48,-99.47 107.76,-108.8l406.18 0zm-377.17 59.07c-38.34,0 -67.36,19.68 -67.36,55.95l1.04 297.39c0,8.29 25.9,51.81 52.85,51.81l335.72 0c33.16,0 93.26,-21.76 93.26,-72.53l0 -240.4c0,-48.7 -23.83,-92.22 -76.68,-92.22l-338.83 0zm684.92 459.03l0 -435.2c0,-26.94 70.46,-82.9 99.47,-82.9l294.28 0c12.44,0 26.94,9.33 38.34,20.73 7.25,6.22 13.47,13.47 19.68,20.72 5.18,-7.26 10.37,-14.51 16.58,-20.72 11.4,-11.4 23.83,-20.73 40.41,-20.73l295.32 0c44.55,0 82.89,53.89 82.89,82.9l0 435.2 -58.02 0 0 -402.04c0,-16.58 -11.4,-52.85 -41.45,-52.85l-253.86 0c-33.16,0 -48.7,37.31 -48.7,53.89l0 401 -66.32 0 0 -402.04c0,-16.58 -19.68,-52.85 -51.81,-52.85l-242.47 0c-16.58,0 -58.03,36.27 -58.03,61.14l0 393.75 -66.31 0zm1243.41 -273.55l297.39 0c16.58,0 58.03,-49.73 58.03,-82.89 0,-23.83 -41.45,-99.47 -58.03,-99.47l-297.39 0c-24.87,0 -99.47,58.02 -99.47,74.6l0 265.27c0,24.86 24.87,58.02 41.45,58.02l363.7 0c8.3,0 23.83,-13.47 39.38,-29.01 8.29,-8.29 17.61,-17.61 26.94,-29.01l41.45 49.73c-13.47,12.44 -26.94,23.83 -39.37,33.16 -20.73,16.58 -43.52,33.16 -51.81,33.16l-421.73 0c-24.87,0 -58.02,-58.03 -58.02,-74.6l0 -331.58c0,-31.08 106.72,-111.91 140.92,-111.91l330.54 0c41.45,0 99.47,136.78 99.47,169.94 0,48.7 -74.6,132.63 -99.47,132.63l-313.97 0 0 -58.03zm693.21 -451.78l0 207.24 232.11 0 0 66.32 -232.11 0 0 344.02c0,24.87 24.87,49.73 41.45,49.73l190.65 0 0 58.03 -215.52 0c-16.58,0 -74.6,-49.73 -74.6,-74.6l0 -650.73 58.02 0zm506.7 725.33l-66.32 0 0 -406.19c21.76,-20.72 42.48,-39.38 61.14,-55.95 33.16,-27.98 66.32,-55.96 79.78,-55.96l232.11 0 0 62.18 -190.65 0c-16.58,0 -116.06,82.89 -116.06,99.47l0 356.45zm555.4 -518.1l0 518.1 -66.32 0 0 -518.1 66.32 0zm756.41 98.44c-5.18,-7.26 -10.37,-12.44 -15.54,-17.61 -8.29,-8.3 -18.65,-16.58 -27.98,-16.58l-370.95 0c-12.44,0 -38.34,27.98 -38.34,44.55l0 319.15c0,16.58 20.72,32.12 38.34,32.12l367.84 0c15.54,0 26.95,-8.29 35.24,-16.58 5.18,-5.18 9.33,-10.37 12.44,-15.54l44.55 51.81c-8.29,7.25 -16.58,13.47 -24.87,18.65 -15.54,9.32 -32.12,19.68 -47.66,19.68l-424.84 0c-32.12,0 -69.42,-46.62 -69.42,-65.28l0 -33.16 0 -66.32 0 -83.93 0 -82.9 0 -66.32 0 -31.08c-3.11,-31.09 33.15,-89.12 66.31,-89.12l428.99 0c13.47,0 29.01,13.47 44.55,29.02 8.29,8.29 16.58,17.61 24.86,29.01l-43.52 40.41zm-5344.64 1046.84c-6.22,-6.22 -12.44,-11.4 -19.69,-16.58 -11.4,-8.29 -25.9,-16.58 -38.34,-16.58l-223.82 0c-8.29,0 -41.45,8.29 -41.45,24.87l0 58.02c0,7.26 58.03,24.87 66.32,33.16 66.32,24.87 232.11,82.9 256.98,82.9 17.61,8.29 49.73,41.45 49.73,58.02l0 132.63c0,15.54 -41.45,66.32 -58.03,66.32l-306.71 0c-12.43,0 -35.23,-13.47 -54.91,-29.01 -11.4,-8.3 -23.83,-17.61 -36.27,-29.02l41.45 -41.45c7.26,7.26 15.54,14.51 22.79,20.72 12.44,11.4 26.94,20.72 35.24,20.72l256.97 0c24.87,0 41.45,-33.16 41.45,-41.45l0 -74.6c-1.03,-5.18 -3.11,-9.33 -6.22,-12.44 -4.14,-7.25 -10.36,-12.44 -18.65,-12.44 -58.03,-24.86 -231.08,-82.89 -306.71,-107.76 -12.44,-4.15 -22.8,-16.58 -30.05,-27.98 -4.15,-7.25 -8.3,-14.51 -11.4,-21.75l0 -116.06c0,-16.58 58.03,-45.59 66.32,-45.59l281.85 0c12.43,0 31.08,13.47 46.62,26.95 9.33,7.25 18.65,16.58 27.98,26.94l-41.45 41.45zm233.14 -95.33l66.32 0 0 426.91c0,8.3 16.58,33.16 33.16,33.16l256.98 0c17.61,0 82.89,-58.02 82.89,-74.6l0 -385.46 66.32 0 0 642.44c0,24.86 -49.74,82.89 -74.6,82.89l-124.35 0 0 -58.03 99.47 0c8.29,0 33.16,-32.12 33.16,-49.73l0 -140.92c-7.26,7.25 -15.54,14.51 -22.79,20.72 -12.44,11.4 -26.94,20.72 -35.24,20.72l-323.29 0c-8.29,0 -58.03,-50.77 -58.03,-66.32l0 -451.78zm1090.07 95.33c-6.22,-6.22 -12.44,-11.4 -19.69,-16.58 -11.4,-8.29 -25.9,-16.58 -38.34,-16.58l-223.82 0c-8.29,0 -41.45,8.29 -41.45,24.87l0 58.02c0,7.26 58.03,24.87 66.32,33.16 66.32,24.87 232.11,82.9 256.98,82.9 17.61,8.29 49.73,41.45 49.73,58.02l0 132.63c0,15.54 -41.45,66.32 -58.03,66.32l-306.71 0c-12.43,0 -35.23,-13.47 -54.91,-29.01 -11.4,-8.3 -23.83,-17.61 -36.27,-29.02l41.45 -41.45c7.26,7.26 15.54,14.51 22.79,20.72 12.44,11.4 26.94,20.72 35.24,20.72l256.97 0c24.87,0 41.45,-33.16 41.45,-41.45l0 -74.6c-1.03,-5.18 -3.11,-9.33 -6.22,-12.44 -4.14,-7.25 -10.36,-12.44 -18.65,-12.44 -58.03,-24.86 -231.08,-82.89 -306.71,-107.76 -12.44,-4.15 -22.8,-16.58 -30.05,-27.98 -4.15,-7.25 -8.3,-14.51 -11.4,-21.75l0 -116.06c0,-16.58 58.03,-45.59 66.32,-45.59l281.85 0c12.43,0 31.08,13.47 46.62,26.95 9.33,7.25 18.65,16.58 27.98,26.94l-41.45 41.45zm337.79 -302.57l0 207.24 232.11 0 0 66.32 -232.11 0 0 344.02c0,24.87 24.87,49.73 41.45,49.73l190.65 0 0 58.03 -215.52 0c-16.58,0 -74.6,-49.73 -74.6,-74.6l0 -650.73 58.02 0zm582.34 451.78l297.39 0c16.58,0 58.03,-49.73 58.03,-82.89 0,-23.83 -41.45,-99.47 -58.03,-99.47l-297.39 0c-24.87,0 -99.47,58.02 -99.47,74.6l0 265.27c0,24.86 24.87,58.02 41.45,58.02l363.7 0c8.3,0 23.83,-13.47 39.38,-29.01 8.29,-8.29 17.61,-17.61 26.94,-29.01l41.45 49.73c-13.47,12.44 -26.94,23.83 -39.37,33.16 -20.73,16.58 -43.52,33.16 -51.81,33.16l-421.73 0c-24.87,0 -58.02,-58.03 -58.02,-74.6l0 -331.58c0,-31.08 106.72,-111.91 140.92,-111.91l330.54 0c41.45,0 99.47,136.78 99.47,169.94 0,48.7 -74.6,132.63 -99.47,132.63l-313.97 0 0 -58.03zm599.96 273.55l0 -435.2c0,-26.94 70.46,-82.9 99.47,-82.9l294.28 0c12.44,0 26.94,9.33 38.34,20.73 7.25,6.22 13.47,13.47 19.68,20.72 5.18,-7.26 10.37,-14.51 16.58,-20.72 11.4,-11.4 23.83,-20.73 40.41,-20.73l295.32 0c44.55,0 82.89,53.89 82.89,82.9l0 435.2 -58.02 0 0 -402.04c0,-16.58 -11.4,-52.85 -41.45,-52.85l-253.86 0c-33.16,0 -48.7,37.31 -48.7,53.89l0 401 -66.32 0 0 -402.04c0,-16.58 -19.68,-52.85 -51.81,-52.85l-242.47 0c-16.58,0 -58.03,36.27 -58.03,61.14l0 393.75 -66.31 0zm1470.34 -422.76c-6.22,-6.22 -12.44,-11.4 -19.69,-16.58 -11.4,-8.29 -25.9,-16.58 -38.34,-16.58l-223.82 0c-8.29,0 -41.45,8.29 -41.45,24.87l0 58.02c0,7.26 58.03,24.87 66.32,33.16 66.32,24.87 232.11,82.9 256.98,82.9 17.61,8.29 49.73,41.45 49.73,58.02l0 132.63c0,15.54 -41.45,66.32 -58.03,66.32l-306.71 0c-12.43,0 -35.23,-13.47 -54.91,-29.01 -11.4,-8.3 -23.83,-17.61 -36.27,-29.02l41.45 -41.45c7.26,7.26 15.54,14.51 22.79,20.72 12.44,11.4 26.94,20.72 35.24,20.72l256.97 0c24.87,0 41.45,-33.16 41.45,-41.45l0 -74.6c-1.03,-5.18 -3.11,-9.33 -6.22,-12.44 -4.14,-7.25 -10.36,-12.44 -18.65,-12.44 -58.03,-24.86 -231.08,-82.89 -306.71,-107.76 -12.44,-4.15 -22.8,-16.58 -30.05,-27.98 -4.15,-7.25 -8.3,-14.51 -11.4,-21.75l0 -116.06c0,-16.58 58.03,-45.59 66.32,-45.59l281.85 0c12.43,0 31.08,13.47 46.62,26.95 9.33,7.25 18.65,16.58 27.98,26.94l-41.45 41.45z"/>
 </g>
</svg>
